<?xml version="1.0" encoding="UTF-8"?>
<svg width="59px" height="59px" viewBox="0 0 59 59" version="1.1" xmlns="http://www.w3.org/2000/svg" xmlns:xlink="http://www.w3.org/1999/xlink">
    <title>Group</title>
    <g id="Page-1" stroke="none" stroke-width="1" fill="none" fill-rule="evenodd">
        <g id="Group">
            <path d="M29.5,0 C45.7924001,0 59,13.2075999 59,29.5 C59,45.7924001 45.7924001,59 29.5,59 C13.2075999,59 0,45.7924001 0,29.5 C0,13.2075999 13.2075999,0 29.5,0 Z M29.5,3 C14.8644541,3 3,14.8644541 3,29.5 C3,44.1355459 14.8644541,56 29.5,56 C44.1355459,56 56,44.1355459 56,29.5 C56,14.8644541 44.1355459,3 29.5,3 Z" id="Combined-Shape" fill="#F0F0F0"></path>
            <path d="M59,29.5 C59,45.7924001 45.7924001,59 29.5,59 C13.3745467,59 0.270998171,46.0616876 0.00414947246,29.9998579 L3.0046115,29.9994017 C3.27084786,44.404492 15.0312859,56 29.5,56 C44.1355459,56 56,44.1355459 56,29.5 C56,15.0312859 44.404492,3.27084786 29.9994017,3.0046115 L29.9998579,0.00414947246 C46.0616876,0.270998171 59,13.3745467 59,29.5 Z" id="Combined-Shape" fill="#99C6B0"></path>
            <g id="heart" transform="translate(16.000000, 19.000000)" stroke="#919191" stroke-linecap="round" stroke-linejoin="round" stroke-width="2">
                <path d="M25.7217209,2.14910083 C24.3463553,0.773089452 22.4805716,5.32907052e-15 20.5350543,5.32907052e-15 C18.5895369,5.32907052e-15 16.7237532,0.773089452 15.3483876,2.14910083 L13.9350543,3.56243416 L12.5217209,2.14910083 C9.65720402,-0.715416001 5.01290455,-0.715415967 2.14838768,2.14910091 C-0.716129195,5.01361778 -0.71612923,9.65791725 2.1483876,12.5224342 L3.56172093,13.9357675 L13.9350543,24.3091008 L24.3083876,13.9357675 L25.7217209,12.5224342 C27.0977323,11.1470686 27.8708218,9.28128487 27.8708218,7.33576749 C27.8708218,5.39025012 27.0977323,3.52446643 25.7217209,2.14910083 Z" id="Path"></path>
            </g>
        </g>
    </g>
</svg>