<?xml version="1.0" encoding="UTF-8"?>
<svg width="14px" height="14px" viewBox="0 0 14 14" version="1.1" xmlns="http://www.w3.org/2000/svg" xmlns:xlink="http://www.w3.org/1999/xlink">
    <title>Star Icon Symbol instance</title>
    <g id="Page-1" stroke="none" stroke-width="1" fill="none" fill-rule="evenodd">
        <g id="Icons" transform="translate(-238.000000, -277.000000)" fill="#0096FF">
            <g id="Star-Icon" transform="translate(238.000000, 277.000000)">
                <path d="M7.67591005,0.420309007 L9.25492928,3.61982012 C9.36474035,3.84235005 9.57704984,3.99655024 9.82265015,4.03216983 L13.3535999,4.54528018 C13.9721001,4.63522009 14.2189,5.39509036 13.7714995,5.83110004 L11.2165005,8.32155985 C11.0389994,8.49472985 10.9577997,8.74442013 10.9997997,8.98885005 L11.6028997,12.5055002 C11.7086004,13.1214005 11.0620005,13.5910007 10.5088993,13.3003997 L7.35088024,11.6401999 C7.1312702,11.5249009 6.86872983,11.5249009 6.64911979,11.6401999 L3.49108012,13.3003997 C2.93797005,13.5913001 2.29141017,13.1214005 2.39712013,12.5055002 L3.00017009,8.98885005 C3.04222034,8.74442013 2.96104018,8.49472985 2.78347999,8.32155985 L0.228484005,5.83110004 C-0.218911011,5.39480017 0.027857198,4.63493028 0.646382984,4.54528018 L4.17735029,4.03216983 C4.4229498,3.99655024 4.63526009,3.84235005 4.74506995,3.61982012 L6.32408999,0.420309007 C6.60034999,-0.140102987 7.39935985,-0.140102987 7.67591005,0.420309007 L7.67591005,0.420309007 Z" id="Shape"></path>
            </g>
        </g>
    </g>
</svg>