<?xml version="1.0" encoding="UTF-8"?>
<svg width="361px" height="12px" viewBox="0 0 361 12" version="1.1" xmlns="http://www.w3.org/2000/svg" xmlns:xlink="http://www.w3.org/1999/xlink">
    <title>Status Bar - Default</title>
    <g id="UI-Kit" stroke="none" stroke-width="1" fill="none" fill-rule="evenodd">
        <g id="Group" transform="translate(-10.000000, -17.000000)" fill="#000000">
            <g id="Symbols" transform="translate(303.500000, 16.600000)">
                <g id="Battery" transform="translate(42.500000, 0.000000)">
                    <path d="M3.58943922,1.55999756 C2.60246067,1.55999756 2.25790408,1.62653451 1.90401485,1.81579654 C1.62198703,1.96662666 1.4066291,2.18198459 1.25579898,2.46401241 C1.06653695,2.81790163 1,3.16245823 1,4.14943678 L1,8.47055834 C1,9.45753689 1.06653695,9.80209348 1.25579898,10.1559827 C1.4066291,10.4380105 1.62198703,10.6533685 1.90401485,10.8041986 C2.25790408,10.9934606 2.60246067,11.0599976 3.58943922,11.0599976 L18.4105608,11.0599976 C19.3975393,11.0599976 19.7420959,10.9934606 20.0959852,10.8041986 C20.378013,10.6533685 20.5933709,10.4380105 20.744201,10.1559827 C20.9334631,9.80209348 21,9.45753689 21,8.47055834 L21,4.14943678 C21,3.16245823 20.9334631,2.81790163 20.744201,2.46401241 C20.5933709,2.18198459 20.378013,1.96662666 20.0959852,1.81579654 C19.7420959,1.62653451 19.3975393,1.55999756 18.4105608,1.55999756 L3.58943922,1.55999756 Z M18.4105608,0.559997559 C19.658687,0.559997559 20.1112877,0.689953412 20.567584,0.933983338 C21.0238803,1.17801326 21.3819843,1.53611726 21.6260142,1.99241355 C21.8700441,2.44870984 22,2.90131056 22,4.14943678 L22,8.47055834 C22,9.71868455 21.8700441,10.1712853 21.6260142,10.6275816 C21.3819843,11.0838779 21.0238803,11.4419819 20.567584,11.6860118 C20.1112877,11.9300417 19.658687,12.0599976 18.4105608,12.0599976 L3.58943922,12.0599976 C2.341313,12.0599976 1.88871228,11.9300417 1.43241599,11.6860118 C0.976119702,11.4419819 0.618015704,11.0838779 0.373985779,10.6275816 C0.129955853,10.1712853 0,9.71868455 0,8.47055834 L0,4.14943678 C0,2.90131056 0.129955853,2.44870984 0.373985779,1.99241355 C0.618015704,1.53611726 0.976119702,1.17801326 1.43241599,0.933983338 C1.88871228,0.689953412 2.341313,0.559997559 3.58943922,0.559997559 L18.4105608,0.559997559 Z M23,4.25 C24,4.75895182 24.5,5.42561849 24.5,6.25 C24.5,7.07438151 24,7.74104818 23,8.25 L23,8.25 Z" id="Rectangle" fill-opacity="0.36" fill-rule="nonzero"></path>
                    <path d="M4.05110819,2.47666423 L17.9488918,2.47666423 C18.6621068,2.47666423 18.9207358,2.55092472 19.1814766,2.69037039 C19.4422173,2.82981607 19.6468482,3.03444693 19.7862938,3.29518767 C19.9257395,3.55592842 20,3.81455741 20,4.52777242 L20,8.0922227 C20,8.8054377 19.9257395,9.0640667 19.7862938,9.32480744 C19.6468482,9.58554819 19.4422173,9.79017905 19.1814766,9.92962473 C18.9207358,10.0690704 18.6621068,10.1433309 17.9488918,10.1433309 L4.05110819,10.1433309 C3.33789319,10.1433309 3.07926419,10.0690704 2.81852345,9.92962473 C2.5577827,9.79017905 2.35315184,9.58554819 2.21370617,9.32480744 C2.07426049,9.0640667 2,8.8054377 2,8.0922227 L2,4.52777242 C2,3.81455741 2.07426049,3.55592842 2.21370617,3.29518767 C2.35315184,3.03444693 2.5577827,2.82981607 2.81852345,2.69037039 C3.07926419,2.55092472 3.33789319,2.47666423 4.05110819,2.47666423 Z" id="Rectangle"></path>
                </g>
                <path d="M1.61042911,7.70000458 C1.96682803,7.70000458 2.19055183,7.75569995 2.3861074,7.86028421 C2.58166296,7.96486847 2.73513611,8.11834162 2.83972037,8.31389718 C2.94430463,8.50945274 3,8.73317655 3,9.08957547 L3,10.3104337 C3,10.6668326 2.94430463,10.8905564 2.83972037,11.086112 C2.73513611,11.2816675 2.58166296,11.4351407 2.3861074,11.5397249 C2.19055183,11.6443092 1.96682803,11.7000046 1.61042911,11.7000046 L1.38957089,11.7000046 C1.03317197,11.7000046 0.809448166,11.6443092 0.613892602,11.5397249 C0.418337039,11.4351407 0.264863888,11.2816675 0.160279629,11.086112 C0.0556953689,10.8905564 1.79678739e-15,10.6668326 1.75314111e-15,10.3104337 L1.79957257e-15,9.08957547 C1.75592629e-15,8.73317655 0.0556953689,8.50945274 0.160279629,8.31389718 C0.264863888,8.11834162 0.418337039,7.96486847 0.613892602,7.86028421 C0.809448166,7.75569995 1.03317197,7.70000458 1.38957089,7.70000458 L1.61042911,7.70000458 Z M6.4104169,5.70000458 C6.76681582,5.70000458 6.99053963,5.75569995 7.18609519,5.86028421 C7.38165075,5.96486847 7.5351239,6.11834162 7.63970816,6.31389718 C7.74429242,6.50945274 7.79998779,6.73317655 7.79998779,7.08957547 L7.79998779,10.3104337 C7.79998779,10.6668326 7.74429242,10.8905564 7.63970816,11.086112 C7.5351239,11.2816675 7.38165075,11.4351407 7.18609519,11.5397249 C6.99053963,11.6443092 6.76681582,11.7000046 6.4104169,11.7000046 L6.18955869,11.7000046 C5.83315977,11.7000046 5.60943596,11.6443092 5.4138804,11.5397249 C5.21832483,11.4351407 5.06485168,11.2816675 4.96026742,11.086112 C4.85568316,10.8905564 4.79998779,10.6668326 4.79998779,10.3104337 L4.79998779,7.08957547 C4.79998779,6.73317655 4.85568316,6.50945274 4.96026742,6.31389718 C5.06485168,6.11834162 5.21832483,5.96486847 5.4138804,5.86028421 C5.60943596,5.75569995 5.83315977,5.70000458 6.18955869,5.70000458 L6.4104169,5.70000458 Z M11.010423,3.40000153 C11.3668219,3.40000153 11.5905457,3.45569689 11.7861013,3.56028115 C11.9816569,3.66486541 12.13513,3.81833856 12.2397143,4.01389413 C12.3442985,4.20944969 12.3999939,4.4331735 12.3999939,4.78957242 L12.3999939,10.3104337 C12.3999939,10.6668326 12.3442985,10.8905564 12.2397143,11.086112 C12.13513,11.2816675 11.9816569,11.4351407 11.7861013,11.5397249 C11.5905457,11.6443092 11.3668219,11.7000046 11.010423,11.7000046 L10.7895648,11.7000046 C10.4331659,11.7000046 10.2094421,11.6443092 10.0138865,11.5397249 C9.81833094,11.4351407 9.66485778,11.2816675 9.56027353,11.086112 C9.45568927,10.8905564 9.3999939,10.6668326 9.3999939,10.3104337 L9.3999939,4.78957242 C9.3999939,4.4331735 9.45568927,4.20944969 9.56027353,4.01389413 C9.66485778,3.81833856 9.81833094,3.66486541 10.0138865,3.56028115 C10.2094421,3.45569689 10.4331659,3.40000153 10.7895648,3.40000153 L11.010423,3.40000153 Z M15.71042,1 C16.0668189,1 16.2905427,1.05569537 16.4860982,1.16027963 C16.6816538,1.26486389 16.835127,1.41833704 16.9397112,1.6138926 C17.0442955,1.80944817 17.0999908,2.03317197 17.0999908,2.38957089 L17.0999908,10.3104289 C17.0999908,10.6668278 17.0442955,10.8905516 16.9397112,11.0861072 C16.835127,11.2816628 16.6816538,11.4351359 16.4860982,11.5397202 C16.2905427,11.6443044 16.0668189,11.6999998 15.71042,11.6999998 L15.4895617,11.6999998 C15.1331628,11.6999998 14.909439,11.6443044 14.7138834,11.5397202 C14.5183279,11.4351359 14.3648547,11.2816628 14.2602705,11.0861072 C14.1556862,10.8905516 14.0999908,10.6668278 14.0999908,10.3104289 L14.0999908,2.38957089 C14.0999908,2.03317197 14.1556862,1.80944817 14.2602705,1.6138926 C14.3648547,1.41833704 14.5183279,1.26486389 14.7138834,1.16027963 C14.909439,1.05569537 15.1331628,1 15.4895617,1 L15.71042,1 Z" id="Combined-Shape"></path>
                <path d="M29.8004303,3.0963595 C32.0348378,3.09645731 34.1838073,3.95501054 35.8031778,5.49456857 C35.9251184,5.61342761 36.1200237,5.61192819 36.240129,5.49120671 L37.4057894,4.31479121 C37.4666034,4.25356076 37.5005044,4.17062241 37.5000057,4.08432624 C37.499496,3.99803107 37.464627,3.91549405 37.4030971,3.85498054 C33.1527727,-0.218327865 26.4474021,-0.218327865 22.1970777,3.85498054 C22.1355075,3.91544968 22.100578,3.99796149 22.1000061,4.08425666 C22.0994385,4.17055284 22.1332891,4.25351639 22.1940527,4.31479121 L23.3600559,5.49120671 C23.4800705,5.6121107 23.6751371,5.61361113 23.7970071,5.49456857 C25.4165792,3.9549097 27.5658008,3.09635445 29.8004303,3.0963595 L29.8004303,3.0963595 Z M29.8004303,6.92374583 C31.0280945,6.9236702 32.2119456,7.3799849 33.1219573,8.20402309 C33.2450373,8.3209723 33.4389241,8.31843729 33.5589085,8.19830873 L34.7232278,7.02189222 C34.7845359,6.96018583 34.8185578,6.87647608 34.8176971,6.78949019 C34.8167932,6.7025043 34.7810772,6.61950343 34.7185187,6.55905648 C31.9473528,3.98131151 27.6558471,3.98131151 24.8846912,6.55905648 C24.8220924,6.61950343 24.7863764,6.70254564 24.785545,6.78955977 C24.7847328,6.87657289 24.8188758,6.96027557 24.880315,7.02189222 L26.0443015,8.19830873 C26.1642757,8.31843729 26.3581727,8.3209723 26.4812527,8.20402309 C27.3906594,7.38052941 28.5735727,6.92425404 29.8004303,6.92374583 L29.8004303,6.92374583 Z M32.0379738,9.73134673 C32.1002398,9.67023426 32.1345341,9.58613529 32.1327493,9.49890538 C32.1309645,9.41167546 32.0932721,9.32904668 32.0285558,9.27052771 C30.7423262,8.18262777 28.8585242,8.18262777 27.5722947,9.27052771 C27.507538,9.3290003 27.469775,9.41160286 27.4679297,9.49883278 C27.4660844,9.5860637 27.5003181,9.67018889 27.5625438,9.73134673 L29.5769078,11.7638581 C29.6359471,11.8235921 29.7164341,11.8572094 29.8004303,11.8572094 C29.8844163,11.8572094 29.9649033,11.8235921 30.0239426,11.7638581 L32.0379738,9.73134673 Z" id="Wi-Fi"></path>
            </g>
            <g transform="translate(-20.000000, 12.000000)" font-family="Helvetica" font-size="15" font-weight="normal" id="↳-Time" letter-spacing="-0.165">
                <g>
                    <text>
                        <tspan x="29.5" y="17">9:41</tspan>
                    </text>
                </g>
            </g>
        </g>
    </g>
</svg>