<?xml version="1.0" encoding="UTF-8"?>
<svg width="59px" height="59px" viewBox="0 0 59 59" version="1.1" xmlns="http://www.w3.org/2000/svg" xmlns:xlink="http://www.w3.org/1999/xlink">
    <title>Group</title>
    <g id="Page-1" stroke="none" stroke-width="1" fill="none" fill-rule="evenodd">
        <g id="Group">
            <g id="droplet" transform="translate(19.000000, 16.000000)" stroke="#919191" stroke-linecap="round" stroke-linejoin="round" stroke-width="2">
                <path d="M10.6666667,0.92 L18.2133333,8.46666667 C21.2654283,11.5167617 22.1793047,16.1052337 20.5287171,20.0919522 C18.8781296,24.0786707 14.9882335,26.6782772 10.6733333,26.6782772 C6.35843313,26.6782772 2.4685371,24.0786707 0.817949553,20.0919522 C-0.832637997,16.1052337 0.0812383529,11.5167617 3.13333333,8.46666667 L10.6666667,0.92 Z" id="Path"></path>
            </g>
            <path d="M29.5,0 C45.7924001,0 59,13.2075999 59,29.5 C59,45.7924001 45.7924001,59 29.5,59 C13.2075999,59 0,45.7924001 0,29.5 C0,13.2075999 13.2075999,0 29.5,0 Z M29.5,3 C14.8644541,3 3,14.8644541 3,29.5 C3,44.1355459 14.8644541,56 29.5,56 C44.1355459,56 56,44.1355459 56,29.5 C56,14.8644541 44.1355459,3 29.5,3 Z" id="Combined-Shape" fill="#F0F0F0"></path>
            <path d="M29.5,2.13162821e-14 C29.6672821,2.13162821e-14 29.8342389,0.00139236294 30.0008596,0.00416613178 L30.0004043,3.00463005 C29.8339734,3.00154787 29.6671675,3 29.5,3 C14.8644541,3 3,14.8644541 3,29.5 C3,30.6867594 3.0780109,31.8552984 3.22918443,33.0007687 L0.205562736,33.0008611 C0.0698177701,31.8528079 -1.24344979e-14,30.6845574 -1.24344979e-14,29.5 C-1.24344979e-14,13.2075999 13.2075999,2.13162821e-14 29.5,2.13162821e-14 Z" id="Combined-Shape" fill="#328AFF"></path>
        </g>
    </g>
</svg>